<svg xmlns="http://www.w3.org/2000/svg" xmlns:xlink="http://www.w3.org/1999/xlink" width="500" zoomAndPan="magnify" viewBox="0 0 375 374.999991" height="500" preserveAspectRatio="xMidYMid meet" version="1.0"><defs><g/><clipPath id="a26cdf65a7"><path d="M 67.261719 116.214844 L 106.261719 116.214844 L 106.261719 155.964844 L 67.261719 155.964844 Z M 67.261719 116.214844 " clip-rule="nonzero"/></clipPath></defs><rect x="-37.5" width="450" fill="#ffffff" y="-37.499999" height="449.999989" fill-opacity="1"/><rect x="-37.5" width="450" fill="#ffffff" y="-37.499999" height="449.999989" fill-opacity="1"/><rect x="-37.5" width="450" fill="#000000" y="-37.499999" height="449.999989" fill-opacity="1"/><g clip-path="url(#a26cdf65a7)"><path fill="#ffffff" d="M 104.097656 122.574219 C 100.023438 122.566406 95.949219 122.5625 91.878906 122.558594 L 89.769531 122.558594 C 89.667969 122.550781 89.570312 122.566406 89.472656 122.601562 C 89.378906 122.636719 89.292969 122.691406 89.222656 122.765625 C 89.148438 122.835938 89.097656 122.921875 89.0625 123.019531 C 89.023438 123.113281 89.011719 123.214844 89.019531 123.316406 L 89.042969 127.796875 C 87.089844 127.300781 85.664062 127.71875 84.695312 129.074219 C 84.476562 129.371094 84.3125 129.695312 84.191406 130.046875 C 84.074219 130.398438 84.011719 130.757812 84.003906 131.128906 C 83.992188 131.496094 84.039062 131.859375 84.140625 132.214844 C 84.242188 132.570312 84.390625 132.90625 84.59375 133.214844 C 85.515625 134.652344 86.84375 135.089844 89.023438 134.65625 L 89.023438 138.511719 L 87.492188 138.511719 C 86.394531 138.511719 85.296875 138.511719 84.195312 138.511719 C 83.894531 138.507812 83.511719 138.511719 83.328125 138.917969 C 83.15625 139.304688 83.375 139.574219 83.566406 139.8125 C 84.050781 140.378906 84.207031 141.027344 84.035156 141.753906 C 83.9375 142.226562 83.710938 142.628906 83.359375 142.957031 C 83.011719 143.285156 82.597656 143.484375 82.121094 143.546875 C 81.660156 143.609375 81.222656 143.535156 80.808594 143.332031 C 80.390625 143.125 80.066406 142.820312 79.828125 142.417969 C 79.585938 142.003906 79.484375 141.554688 79.527344 141.074219 C 79.566406 140.59375 79.746094 140.167969 80.054688 139.800781 C 80.195312 139.699219 80.285156 139.5625 80.328125 139.390625 C 80.371094 139.222656 80.355469 139.058594 80.277344 138.902344 C 80.203125 138.742188 80.085938 138.628906 79.929688 138.554688 C 79.773438 138.480469 79.609375 138.464844 79.441406 138.507812 C 78.550781 138.507812 77.65625 138.507812 76.765625 138.507812 C 75.871094 138.507812 74.980469 138.507812 74.085938 138.507812 C 73.449219 138.507812 73.210938 138.746094 73.210938 139.375 L 73.210938 140.515625 C 73.210938 144.890625 73.210938 149.261719 73.210938 153.632812 C 73.195312 153.921875 73.238281 154.203125 73.34375 154.476562 C 73.445312 154.75 73.601562 154.988281 73.804688 155.195312 C 74.007812 155.402344 74.246094 155.558594 74.515625 155.667969 C 74.785156 155.773438 75.0625 155.820312 75.351562 155.808594 C 80.140625 155.808594 84.933594 155.808594 89.722656 155.808594 C 94.511719 155.804688 99.300781 155.804688 104.089844 155.808594 C 104.382812 155.824219 104.664062 155.78125 104.933594 155.679688 C 105.207031 155.574219 105.445312 155.421875 105.648438 155.214844 C 105.855469 155.007812 106.011719 154.769531 106.113281 154.496094 C 106.21875 154.222656 106.261719 153.941406 106.246094 153.648438 C 106.25 144.011719 106.25 134.371094 106.246094 124.730469 C 106.261719 124.441406 106.214844 124.160156 106.113281 123.886719 C 106.007812 123.617188 105.855469 123.375 105.648438 123.171875 C 105.445312 122.964844 105.207031 122.8125 104.9375 122.707031 C 104.667969 122.601562 104.386719 122.558594 104.097656 122.574219 Z M 89.414062 148.679688 C 89.269531 148.765625 89.164062 148.886719 89.09375 149.039062 C 89.023438 149.191406 89.003906 149.351562 89.035156 149.515625 C 89.042969 150.828125 89.042969 152.140625 89.039062 153.453125 L 89.039062 154.335938 C 89.039062 154.371094 89.035156 154.402344 89.023438 154.4375 L 75.601562 154.4375 C 74.773438 154.4375 74.585938 154.246094 74.585938 153.417969 L 74.585938 139.910156 L 78.394531 139.910156 C 77.945312 141.9375 78.367188 143.328125 79.71875 144.273438 C 80.019531 144.484375 80.347656 144.648438 80.695312 144.757812 C 81.046875 144.871094 81.402344 144.929688 81.769531 144.933594 C 82.136719 144.9375 82.496094 144.886719 82.851562 144.777344 C 83.203125 144.671875 83.53125 144.515625 83.835938 144.308594 C 85.21875 143.378906 85.648438 142.015625 85.214844 139.902344 L 89.015625 139.902344 C 89.023438 139.96875 89.03125 140.035156 89.03125 140.101562 L 89.027344 141.398438 C 89.019531 142.550781 89.011719 143.746094 89.027344 144.921875 C 89.046875 145.210938 89.175781 145.441406 89.40625 145.617188 C 89.78125 145.871094 90.15625 145.546875 90.277344 145.441406 C 90.527344 145.21875 90.8125 145.058594 91.128906 144.960938 C 91.449219 144.867188 91.773438 144.839844 92.101562 144.886719 C 92.429688 144.933594 92.734375 145.050781 93.015625 145.230469 C 93.296875 145.410156 93.523438 145.644531 93.703125 145.925781 C 93.882812 146.207031 93.992188 146.515625 94.039062 146.847656 C 94.082031 147.179688 94.058594 147.503906 93.960938 147.824219 C 93.863281 148.144531 93.703125 148.429688 93.480469 148.679688 C 93.261719 148.929688 92.996094 149.121094 92.691406 149.253906 C 92.292969 149.445312 91.878906 149.507812 91.445312 149.4375 C 91.007812 149.371094 90.628906 149.1875 90.308594 148.886719 C 90.199219 148.753906 90.0625 148.667969 89.894531 148.628906 C 89.730469 148.589844 89.566406 148.605469 89.414062 148.679688 Z M 103.894531 154.4375 L 90.433594 154.4375 L 90.433594 150.589844 C 92.421875 151.179688 93.945312 150.625 94.964844 148.933594 C 95.148438 148.621094 95.285156 148.285156 95.367188 147.929688 C 95.449219 147.578125 95.472656 147.21875 95.445312 146.855469 C 95.414062 146.492188 95.332031 146.140625 95.191406 145.804688 C 95.054688 145.46875 94.871094 145.160156 94.636719 144.878906 C 93.550781 143.566406 92.132812 143.179688 90.421875 143.726562 L 90.421875 139.886719 C 90.460938 139.878906 90.503906 139.875 90.546875 139.871094 L 91.34375 139.871094 C 92.671875 139.871094 94.003906 139.871094 95.332031 139.878906 L 95.351562 139.878906 C 95.511719 139.90625 95.660156 139.882812 95.804688 139.808594 C 95.945312 139.734375 96.054688 139.625 96.125 139.480469 C 96.183594 139.332031 96.195312 139.175781 96.160156 139.015625 C 96.121094 138.859375 96.042969 138.722656 95.921875 138.613281 C 95.804688 138.476562 95.703125 138.328125 95.621094 138.167969 C 95.539062 138.007812 95.476562 137.839844 95.433594 137.664062 C 95.390625 137.488281 95.367188 137.3125 95.367188 137.128906 C 95.363281 136.949219 95.386719 136.769531 95.425781 136.59375 C 95.464844 136.417969 95.527344 136.25 95.609375 136.089844 C 95.6875 135.925781 95.785156 135.777344 95.902344 135.640625 C 96.019531 135.5 96.148438 135.378906 96.292969 135.269531 C 96.4375 135.164062 96.59375 135.074219 96.757812 135.003906 C 96.925781 134.933594 97.097656 134.886719 97.273438 134.855469 C 97.449219 134.828125 97.628906 134.820312 97.808594 134.832031 C 97.988281 134.84375 98.164062 134.878906 98.332031 134.933594 C 98.503906 134.988281 98.667969 135.0625 98.820312 135.15625 C 98.972656 135.25 99.113281 135.363281 99.242188 135.488281 C 99.371094 135.617188 99.480469 135.757812 99.574219 135.910156 C 99.671875 136.0625 99.746094 136.226562 99.800781 136.398438 C 99.859375 136.570312 99.894531 136.746094 99.910156 136.925781 C 99.964844 137.570312 99.773438 138.136719 99.34375 138.617188 C 99.214844 138.71875 99.128906 138.851562 99.09375 139.011719 C 99.054688 139.175781 99.070312 139.332031 99.136719 139.480469 C 99.21875 139.628906 99.335938 139.738281 99.484375 139.8125 C 99.636719 139.886719 99.796875 139.90625 99.960938 139.878906 C 101.199219 139.867188 102.433594 139.867188 103.691406 139.871094 L 104.875 139.871094 L 104.875 139.902344 C 104.882812 140 104.890625 140.089844 104.890625 140.183594 C 104.890625 144.597656 104.890625 149.011719 104.890625 153.421875 C 104.890625 154.222656 104.679688 154.4375 103.894531 154.4375 Z M 104.890625 138.472656 L 101.058594 138.472656 C 101.640625 136.484375 101.101562 134.957031 99.445312 133.929688 C 99.132812 133.738281 98.800781 133.601562 98.445312 133.515625 C 98.089844 133.425781 97.730469 133.398438 97.363281 133.425781 C 97 133.453125 96.648438 133.535156 96.308594 133.675781 C 95.972656 133.8125 95.660156 134 95.382812 134.238281 C 94.066406 135.335938 93.683594 136.761719 94.234375 138.476562 L 90.398438 138.476562 L 90.398438 137.136719 C 90.398438 135.960938 90.398438 134.785156 90.398438 133.609375 C 90.441406 133.441406 90.425781 133.277344 90.355469 133.121094 C 90.28125 132.960938 90.167969 132.84375 90.015625 132.769531 C 89.859375 132.691406 89.699219 132.675781 89.53125 132.714844 C 89.363281 132.753906 89.226562 132.84375 89.121094 132.980469 C 88.898438 133.171875 88.648438 133.3125 88.367188 133.40625 C 88.089844 133.496094 87.804688 133.535156 87.515625 133.511719 C 87.222656 133.492188 86.945312 133.421875 86.679688 133.292969 C 86.417969 133.164062 86.1875 132.988281 85.992188 132.769531 C 85.796875 132.554688 85.644531 132.308594 85.542969 132.03125 C 85.4375 131.757812 85.390625 131.472656 85.394531 131.179688 C 85.402344 130.882812 85.460938 130.601562 85.574219 130.328125 C 85.683594 130.058594 85.84375 129.816406 86.046875 129.605469 C 86.25 129.394531 86.488281 129.230469 86.753906 129.113281 C 87.023438 128.992188 87.300781 128.929688 87.59375 128.921875 C 87.886719 128.914062 88.171875 128.960938 88.445312 129.0625 C 88.71875 129.164062 88.960938 129.316406 89.179688 129.515625 C 89.289062 129.636719 89.425781 129.714844 89.589844 129.742188 C 89.753906 129.773438 89.90625 129.746094 90.054688 129.667969 C 90.347656 129.480469 90.46875 129.210938 90.417969 128.863281 C 90.40625 127.632812 90.40625 126.425781 90.410156 125.148438 L 90.410156 123.964844 L 90.4375 123.964844 C 90.535156 123.957031 90.628906 123.949219 90.71875 123.949219 C 95.121094 123.949219 99.519531 123.949219 103.917969 123.949219 C 104.683594 123.949219 104.894531 124.164062 104.894531 124.945312 C 104.894531 128.257812 104.894531 131.566406 104.894531 134.878906 Z M 76.179688 132.320312 L 76.976562 132.640625 C 77.707031 132.933594 78.421875 133.222656 79.136719 133.503906 C 79.65625 133.710938 79.984375 133.582031 80.179688 133.097656 C 80.714844 131.765625 81.269531 130.386719 81.789062 128.996094 C 81.871094 128.710938 81.828125 128.453125 81.652344 128.210938 C 81.503906 128.042969 81.195312 128.046875 80.9375 128.050781 C 80.804688 128.054688 80.671875 128.070312 80.539062 128.097656 C 80.335938 128.125 80.136719 128.117188 79.9375 128.070312 C 79.738281 128.023438 79.554688 127.941406 79.386719 127.824219 C 79.21875 127.710938 79.074219 127.566406 78.960938 127.394531 C 78.847656 127.222656 78.769531 127.039062 78.726562 126.835938 C 78.679688 126.636719 78.675781 126.433594 78.707031 126.230469 C 78.742188 126.027344 78.808594 125.835938 78.914062 125.660156 C 79.015625 125.484375 79.148438 125.332031 79.3125 125.203125 C 79.472656 125.078125 79.652344 124.988281 79.847656 124.929688 C 80.21875 124.8125 80.585938 124.828125 80.945312 124.976562 C 81.304688 125.125 81.578125 125.375 81.757812 125.722656 C 81.859375 125.898438 82.105469 126.316406 82.519531 126.1875 C 82.792969 126.082031 82.992188 125.898438 83.113281 125.628906 C 83.558594 124.5625 83.988281 123.46875 84.402344 122.410156 L 84.671875 121.726562 C 84.90625 121.132812 84.773438 120.828125 84.179688 120.585938 C 83.585938 120.347656 83.003906 120.117188 82.417969 119.882812 L 79.214844 118.605469 C 77.460938 117.902344 75.703125 117.203125 73.949219 116.503906 C 73.722656 116.394531 73.488281 116.335938 73.238281 116.324219 C 72.988281 116.316406 72.75 116.359375 72.519531 116.453125 C 72.289062 116.550781 72.085938 116.6875 71.914062 116.867188 C 71.742188 117.046875 71.613281 117.257812 71.527344 117.492188 C 70.144531 120.96875 68.769531 124.449219 67.402344 127.933594 C 67.34375 128.03125 67.3125 128.136719 67.304688 128.253906 C 67.296875 128.367188 67.316406 128.476562 67.359375 128.582031 C 67.40625 128.683594 67.472656 128.773438 67.558594 128.847656 C 67.648438 128.917969 67.746094 128.96875 67.859375 128.992188 C 68.445312 129.230469 69.027344 129.464844 69.617188 129.699219 L 70.617188 130.105469 C 70.6875 130.132812 70.753906 130.164062 70.824219 130.195312 C 70.621094 130.4375 70.460938 130.707031 70.347656 131.003906 C 70.230469 131.300781 70.164062 131.605469 70.144531 131.921875 C 70.125 132.238281 70.15625 132.550781 70.238281 132.859375 C 70.320312 133.164062 70.449219 133.449219 70.621094 133.714844 C 70.867188 134.160156 71.210938 134.507812 71.644531 134.761719 C 72.082031 135.019531 72.550781 135.148438 73.054688 135.144531 C 73.210938 135.144531 73.367188 135.132812 73.519531 135.113281 C 75.027344 134.894531 75.921875 133.957031 76.179688 132.320312 Z M 71.605469 132.644531 C 71.488281 132.292969 71.488281 131.945312 71.605469 131.59375 C 71.722656 131.242188 71.933594 130.964844 72.234375 130.757812 C 72.28125 130.726562 72.328125 130.695312 72.375 130.667969 C 72.621094 130.519531 72.925781 130.335938 72.867188 129.898438 C 72.8125 129.460938 72.464844 129.335938 72.1875 129.234375 C 72.144531 129.21875 72.101562 129.203125 72.0625 129.1875 L 68.882812 127.921875 L 68.902344 127.871094 C 68.945312 127.761719 68.980469 127.65625 69.023438 127.550781 L 69.234375 127.007812 C 70.402344 124.058594 71.566406 121.109375 72.734375 118.160156 C 72.914062 117.707031 73.074219 117.632812 73.503906 117.804688 C 76.246094 118.898438 78.988281 119.992188 81.730469 121.089844 L 83.101562 121.640625 C 83.136719 121.652344 83.171875 121.671875 83.214844 121.691406 L 82.246094 124.15625 C 80.929688 123.234375 79.660156 123.226562 78.46875 124.128906 C 78 124.464844 77.667969 124.902344 77.46875 125.441406 C 77.269531 125.984375 77.238281 126.53125 77.375 127.09375 C 77.667969 128.492188 78.585938 129.316406 80.113281 129.546875 L 79.136719 132.019531 L 75.953125 130.75 C 75.929688 130.738281 75.90625 130.726562 75.882812 130.714844 C 75.808594 130.671875 75.730469 130.644531 75.644531 130.640625 C 75.59375 130.640625 75.539062 130.640625 75.484375 130.640625 C 75.265625 130.605469 75.0625 130.644531 74.875 130.757812 C 74.707031 130.898438 74.703125 131.210938 74.699219 131.460938 L 74.699219 131.507812 C 74.699219 131.648438 74.710938 131.785156 74.730469 131.925781 C 74.761719 132.097656 74.769531 132.269531 74.75 132.441406 C 74.6875 132.804688 74.519531 133.109375 74.246094 133.359375 C 73.972656 133.605469 73.652344 133.738281 73.289062 133.761719 C 72.914062 133.792969 72.570312 133.703125 72.253906 133.496094 C 71.941406 133.285156 71.726562 133.003906 71.605469 132.644531 Z M 71.605469 132.644531 " fill-opacity="1" fill-rule="nonzero"/></g><g fill="#ffffff" fill-opacity="1"><g transform="translate(122.998004, 144.309511)"><g><path d="M 4.238281 0 L 4.238281 -7.976562 L 7.449219 -3.402344 L 8.191406 -3.402344 L 11.4375 -7.949219 L 11.4375 0 L 14.375 0 L 14.375 -12.644531 L 11.808594 -12.644531 L 7.820312 -7.214844 L 7.820312 -7.207031 L 3.886719 -12.644531 L 1.292969 -12.644531 L 1.292969 0 Z M 4.238281 0 "/></g></g></g><g fill="#ffffff" fill-opacity="1"><g transform="translate(139.075044, 144.309511)"><g><path d="M 7.894531 0 L 7.886719 -4.796875 L 12.765625 -12.644531 L 9.324219 -12.644531 L 6.433594 -7.390625 L 3.503906 -12.644531 L 0.09375 -12.644531 L 4.945312 -4.777344 L 4.945312 0 Z M 7.894531 0 "/></g></g></g><g fill="#ffffff" fill-opacity="1"><g transform="translate(152.345718, 144.309511)"><g/></g></g><g fill="#ffffff" fill-opacity="1"><g transform="translate(157.336683, 144.309511)"><g><path d="M 2.601562 0 C 5.289062 0 7.316406 -1.515625 7.316406 -4.296875 L 7.316406 -12.644531 L 4.390625 -12.644531 L 4.390625 -4.472656 C 4.390625 -3.308594 3.691406 -2.621094 2.621094 -2.621094 L 0.390625 -2.621094 L 0.390625 0 Z M 2.601562 0 "/></g></g></g><g fill="#ffffff" fill-opacity="1"><g transform="translate(166.156201, 144.309511)"><g><path d="M 5.886719 0.316406 C 9.019531 0.316406 11.167969 -1.058594 11.167969 -3.589844 C 11.167969 -6.054688 9.207031 -7.121094 6.667969 -7.632812 C 4.675781 -8.003906 3.839844 -8.40625 3.839844 -9.214844 C 3.839844 -9.789062 4.164062 -10.394531 5.738281 -10.394531 C 7.28125 -10.394531 7.78125 -9.6875 7.78125 -8.980469 L 10.730469 -8.980469 C 10.730469 -11.398438 9.085938 -12.960938 5.773438 -12.960938 C 2.5 -12.960938 0.894531 -11.4375 0.894531 -9.234375 C 0.894531 -6.554688 3.515625 -5.71875 5.644531 -5.207031 C 7.28125 -4.835938 8.183594 -4.472656 8.183594 -3.597656 C 8.183594 -2.640625 7.523438 -2.15625 5.875 -2.15625 C 4.371094 -2.15625 3.523438 -2.863281 3.523438 -3.914062 L 0.578125 -3.914062 C 0.578125 -1.867188 2.007812 0.316406 5.886719 0.316406 Z M 5.886719 0.316406 "/></g></g></g><g fill="#ffffff" fill-opacity="1"><g transform="translate(178.256004, 144.309511)"><g/></g></g><g fill="#ffffff" fill-opacity="1"><g transform="translate(183.246972, 144.309511)"><g><path d="M 4.238281 0 L 4.238281 -7.976562 L 7.449219 -3.402344 L 8.191406 -3.402344 L 11.4375 -7.949219 L 11.4375 0 L 14.375 0 L 14.375 -12.644531 L 11.808594 -12.644531 L 7.820312 -7.214844 L 7.820312 -7.207031 L 3.886719 -12.644531 L 1.292969 -12.644531 L 1.292969 0 Z M 4.238281 0 "/></g></g></g><g fill="#ffffff" fill-opacity="1"><g transform="translate(199.324015, 144.309511)"><g><path d="M 13.183594 0 L 7.996094 -12.65625 L 5.234375 -12.65625 L 0.046875 0 L 3.160156 0 L 3.980469 -2.054688 L 9.25 -2.054688 L 10.070312 0 Z M 6.519531 -8.453125 L 6.601562 -8.84375 L 6.628906 -8.84375 L 6.714844 -8.453125 L 8.285156 -4.5 L 4.945312 -4.5 Z M 6.519531 -8.453125 "/></g></g></g><g fill="#ffffff" fill-opacity="1"><g transform="translate(212.96639, 144.309511)"><g><path d="M 5.886719 0.316406 C 9.019531 0.316406 11.167969 -1.058594 11.167969 -3.589844 C 11.167969 -6.054688 9.207031 -7.121094 6.667969 -7.632812 C 4.675781 -8.003906 3.839844 -8.40625 3.839844 -9.214844 C 3.839844 -9.789062 4.164062 -10.394531 5.738281 -10.394531 C 7.28125 -10.394531 7.78125 -9.6875 7.78125 -8.980469 L 10.730469 -8.980469 C 10.730469 -11.398438 9.085938 -12.960938 5.773438 -12.960938 C 2.5 -12.960938 0.894531 -11.4375 0.894531 -9.234375 C 0.894531 -6.554688 3.515625 -5.71875 5.644531 -5.207031 C 7.28125 -4.835938 8.183594 -4.472656 8.183594 -3.597656 C 8.183594 -2.640625 7.523438 -2.15625 5.875 -2.15625 C 4.371094 -2.15625 3.523438 -2.863281 3.523438 -3.914062 L 0.578125 -3.914062 C 0.578125 -1.867188 2.007812 0.316406 5.886719 0.316406 Z M 5.886719 0.316406 "/></g></g></g><g fill="#ffffff" fill-opacity="1"><g transform="translate(225.066193, 144.309511)"><g><path d="M 6.816406 0 L 6.816406 -10.023438 L 10.347656 -10.023438 L 10.347656 -12.644531 L 0.34375 -12.644531 L 0.34375 -10.023438 L 3.886719 -10.023438 L 3.886719 0 Z M 6.816406 0 "/></g></g></g><g fill="#ffffff" fill-opacity="1"><g transform="translate(236.171688, 144.309511)"><g><path d="M 10.292969 0 L 10.292969 -2.621094 L 4.238281 -2.621094 L 4.238281 -5.1875 L 9.363281 -5.1875 L 9.363281 -7.644531 L 4.238281 -7.644531 L 4.238281 -10.03125 L 10.210938 -10.03125 L 10.210938 -12.644531 L 1.292969 -12.644531 L 1.292969 0 Z M 10.292969 0 "/></g></g></g><g fill="#ffffff" fill-opacity="1"><g transform="translate(247.425864, 144.309511)"><g><path d="M 4.238281 0 L 4.238281 -4.230469 L 6.117188 -4.230469 L 8.332031 0 L 11.707031 0 L 9.011719 -4.695312 C 10.46875 -5.320312 11.410156 -6.667969 11.410156 -8.386719 C 11.410156 -10.914062 9.511719 -12.644531 6.84375 -12.644531 L 1.292969 -12.644531 L 1.292969 0 Z M 4.238281 -10.023438 L 6.722656 -10.023438 C 7.691406 -10.023438 8.460938 -9.269531 8.460938 -8.386719 C 8.460938 -7.402344 7.699219 -6.695312 6.722656 -6.695312 L 4.238281 -6.695312 Z M 4.238281 -10.023438 "/></g></g></g></svg>