<svg xmlns="http://www.w3.org/2000/svg" xmlns:xlink="http://www.w3.org/1999/xlink" width="500" zoomAndPan="magnify" viewBox="0 0 375 374.999991" height="500" preserveAspectRatio="xMidYMid meet" version="1.0"><defs><filter x="0%" y="0%" width="100%" height="100%" id="1f65605410"><feColorMatrix values="0 0 0 0 1 0 0 0 0 1 0 0 0 0 1 0 0 0 1 0" color-interpolation-filters="sRGB"/></filter><g/><mask id="6947f504bc"><g filter="url(#1f65605410)"><rect x="-37.5" width="450" fill="#000000" y="-37.499999" height="449.999989" fill-opacity="0.0078"/></g></mask><clipPath id="d475feabe0"><path d="M 0.804688 1.445312 L 59.304688 1.445312 L 59.304688 60.695312 L 0.804688 60.695312 Z M 0.804688 1.445312 " clip-rule="nonzero"/></clipPath><clipPath id="d677b334d2"><rect x="0" width="60" y="0" height="61"/></clipPath></defs><rect x="-37.5" width="450" fill="#ffffff" y="-37.499999" height="449.999989" fill-opacity="1"/><rect x="-37.5" width="450" fill="#ffffff" y="-37.499999" height="449.999989" fill-opacity="1"/><rect x="-37.5" width="450" fill="#ffffff" y="-37.499999" height="449.999989" fill-opacity="1"/><g mask="url(#6947f504bc)"><g transform="matrix(1, 0, 0, 1, 70, 138)"><g clip-path="url(#d677b334d2)"><g clip-path="url(#d475feabe0)"><path fill="#ffffff" d="M 56.058594 10.929688 C 49.949219 10.914062 43.839844 10.90625 37.726562 10.90625 L 34.566406 10.90625 C 34.414062 10.894531 34.265625 10.914062 34.121094 10.96875 C 33.980469 11.019531 33.851562 11.101562 33.746094 11.210938 C 33.636719 11.316406 33.554688 11.445312 33.503906 11.585938 C 33.449219 11.730469 33.429688 11.878906 33.4375 12.03125 L 33.476562 18.710938 C 30.546875 17.972656 28.410156 18.597656 26.953125 20.613281 C 26.628906 21.058594 26.378906 21.542969 26.199219 22.0625 C 26.023438 22.585938 25.929688 23.121094 25.914062 23.671875 C 25.902344 24.226562 25.96875 24.765625 26.121094 25.296875 C 26.273438 25.824219 26.5 26.320312 26.800781 26.785156 C 28.183594 28.925781 30.179688 29.578125 33.445312 28.933594 L 33.445312 34.679688 L 31.148438 34.679688 C 29.503906 34.679688 27.855469 34.679688 26.203125 34.679688 C 25.757812 34.675781 25.175781 34.679688 24.902344 35.285156 C 24.644531 35.859375 24.972656 36.261719 25.265625 36.617188 C 25.605469 37.015625 25.835938 37.46875 25.960938 37.980469 C 26.082031 38.492188 26.082031 39 25.960938 39.511719 C 25.890625 39.855469 25.769531 40.179688 25.597656 40.484375 C 25.425781 40.792969 25.210938 41.0625 24.953125 41.304688 C 24.695312 41.542969 24.410156 41.738281 24.089844 41.886719 C 23.773438 42.039062 23.441406 42.136719 23.09375 42.183594 C 22.402344 42.273438 21.746094 42.164062 21.121094 41.859375 C 20.496094 41.554688 20.007812 41.101562 19.65625 40.503906 C 19.476562 40.199219 19.347656 39.878906 19.273438 39.535156 C 19.195312 39.195312 19.171875 38.847656 19.199219 38.5 C 19.230469 38.148438 19.316406 37.8125 19.449219 37.488281 C 19.585938 37.164062 19.765625 36.871094 19.996094 36.601562 C 20.203125 36.449219 20.339844 36.242188 20.402344 35.992188 C 20.464844 35.738281 20.441406 35.492188 20.328125 35.257812 C 20.21875 35.023438 20.042969 34.851562 19.804688 34.742188 C 19.570312 34.632812 19.324219 34.609375 19.074219 34.675781 C 17.734375 34.675781 16.398438 34.675781 15.058594 34.675781 C 13.71875 34.675781 12.378906 34.675781 11.042969 34.675781 C 10.082031 34.675781 9.726562 35.027344 9.726562 35.96875 L 9.726562 37.667969 C 9.726562 44.183594 9.726562 50.699219 9.726562 57.214844 C 9.714844 57.429688 9.726562 57.640625 9.761719 57.855469 C 9.792969 58.066406 9.847656 58.273438 9.925781 58.472656 C 10.003906 58.671875 10.097656 58.863281 10.214844 59.042969 C 10.332031 59.226562 10.464844 59.390625 10.617188 59.542969 C 10.769531 59.695312 10.933594 59.832031 11.113281 59.949219 C 11.292969 60.070312 11.484375 60.167969 11.683594 60.246094 C 11.882812 60.324219 12.089844 60.382812 12.300781 60.417969 C 12.511719 60.453125 12.726562 60.464844 12.941406 60.457031 C 20.125 60.460938 27.308594 60.460938 34.496094 60.457031 C 41.679688 60.453125 48.863281 60.453125 56.050781 60.457031 C 56.265625 60.46875 56.476562 60.460938 56.691406 60.429688 C 56.902344 60.394531 57.109375 60.339844 57.3125 60.265625 C 57.511719 60.1875 57.703125 60.09375 57.886719 59.976562 C 58.066406 59.859375 58.234375 59.722656 58.386719 59.570312 C 58.539062 59.421875 58.671875 59.253906 58.789062 59.074219 C 58.90625 58.894531 59.003906 58.703125 59.082031 58.5 C 59.160156 58.300781 59.214844 58.09375 59.246094 57.878906 C 59.28125 57.667969 59.292969 57.453125 59.277344 57.238281 C 59.285156 42.871094 59.285156 28.507812 59.277344 14.140625 C 59.289062 13.925781 59.28125 13.710938 59.246094 13.5 C 59.210938 13.289062 59.15625 13.082031 59.082031 12.882812 C 59.003906 12.683594 58.90625 12.492188 58.789062 12.3125 C 58.671875 12.132812 58.539062 11.96875 58.386719 11.816406 C 58.234375 11.664062 58.070312 11.53125 57.890625 11.414062 C 57.707031 11.296875 57.519531 11.199219 57.316406 11.125 C 57.117188 11.046875 56.910156 10.992188 56.699219 10.960938 C 56.488281 10.925781 56.273438 10.917969 56.058594 10.929688 Z M 34.03125 49.832031 C 33.816406 49.960938 33.65625 50.140625 33.550781 50.367188 C 33.449219 50.597656 33.417969 50.832031 33.464844 51.082031 C 33.476562 53.035156 33.476562 54.992188 33.472656 56.949219 L 33.472656 58.261719 C 33.46875 58.3125 33.460938 58.363281 33.449219 58.414062 L 13.316406 58.414062 C 12.074219 58.414062 11.789062 58.128906 11.789062 56.894531 L 11.789062 36.761719 L 17.503906 36.761719 C 16.828125 39.785156 17.464844 41.855469 19.492188 43.265625 C 19.941406 43.582031 20.429688 43.820312 20.957031 43.988281 C 21.480469 44.15625 22.015625 44.242188 22.566406 44.25 C 23.117188 44.253906 23.660156 44.175781 24.1875 44.019531 C 24.714844 43.859375 25.207031 43.628906 25.664062 43.320312 C 27.742188 41.933594 28.386719 39.902344 27.734375 36.753906 L 33.433594 36.753906 C 33.449219 36.847656 33.457031 36.945312 33.460938 37.046875 L 33.449219 38.980469 C 33.4375 40.699219 33.425781 42.480469 33.449219 44.234375 C 33.484375 44.664062 33.671875 45.007812 34.019531 45.265625 C 34.582031 45.644531 35.144531 45.164062 35.328125 45.003906 C 35.515625 44.839844 35.714844 44.699219 35.929688 44.578125 C 36.144531 44.460938 36.371094 44.363281 36.605469 44.292969 C 36.84375 44.222656 37.082031 44.175781 37.328125 44.160156 C 37.574219 44.140625 37.820312 44.148438 38.066406 44.183594 C 38.308594 44.214844 38.546875 44.277344 38.777344 44.363281 C 39.007812 44.449219 39.226562 44.558594 39.433594 44.691406 C 39.640625 44.824219 39.832031 44.980469 40.007812 45.152344 C 40.179688 45.328125 40.332031 45.519531 40.464844 45.726562 C 40.597656 45.9375 40.707031 46.15625 40.792969 46.386719 C 40.875 46.617188 40.9375 46.855469 40.96875 47.101562 C 41.003906 47.34375 41.007812 47.589844 40.988281 47.835938 C 40.96875 48.082031 40.921875 48.320312 40.851562 48.558594 C 40.777344 48.792969 40.683594 49.019531 40.5625 49.234375 C 40.441406 49.449219 40.296875 49.648438 40.132812 49.832031 C 39.96875 50.015625 39.789062 50.179688 39.585938 50.324219 C 39.386719 50.46875 39.175781 50.589844 38.949219 50.6875 C 38.351562 50.972656 37.730469 51.066406 37.078125 50.964844 C 36.425781 50.867188 35.855469 50.589844 35.375 50.140625 C 35.210938 49.941406 35.007812 49.8125 34.753906 49.753906 C 34.503906 49.695312 34.261719 49.722656 34.03125 49.832031 Z M 55.757812 58.417969 L 35.558594 58.417969 L 35.558594 52.679688 C 38.546875 53.5625 40.832031 52.730469 42.359375 50.210938 C 42.636719 49.742188 42.835938 49.246094 42.960938 48.71875 C 43.082031 48.1875 43.121094 47.652344 43.078125 47.113281 C 43.035156 46.570312 42.90625 46.050781 42.699219 45.546875 C 42.496094 45.046875 42.214844 44.585938 41.867188 44.171875 C 40.234375 42.210938 38.109375 41.632812 35.542969 42.453125 L 35.542969 36.726562 C 35.605469 36.714844 35.667969 36.707031 35.730469 36.707031 L 36.925781 36.707031 C 38.921875 36.707031 40.914062 36.707031 42.910156 36.71875 L 42.941406 36.71875 C 43.179688 36.757812 43.402344 36.722656 43.617188 36.613281 C 43.832031 36.503906 43.992188 36.339844 44.097656 36.125 C 44.1875 35.898438 44.207031 35.667969 44.148438 35.429688 C 44.09375 35.195312 43.976562 34.996094 43.796875 34.832031 C 43.617188 34.628906 43.46875 34.40625 43.34375 34.167969 C 43.21875 33.929688 43.125 33.679688 43.0625 33.417969 C 42.996094 33.15625 42.960938 32.890625 42.960938 32.621094 C 42.960938 32.351562 42.988281 32.085938 43.050781 31.824219 C 43.109375 31.558594 43.203125 31.308594 43.324219 31.066406 C 43.445312 30.828125 43.589844 30.601562 43.765625 30.398438 C 43.9375 30.191406 44.132812 30.007812 44.351562 29.847656 C 44.566406 29.6875 44.800781 29.558594 45.050781 29.453125 C 45.296875 29.347656 45.554688 29.273438 45.820312 29.230469 C 46.085938 29.1875 46.355469 29.175781 46.621094 29.195312 C 46.890625 29.214844 47.15625 29.265625 47.410156 29.347656 C 47.667969 29.429688 47.910156 29.539062 48.140625 29.679688 C 48.371094 29.820312 48.582031 29.984375 48.773438 30.171875 C 48.964844 30.363281 49.132812 30.570312 49.273438 30.800781 C 49.417969 31.03125 49.53125 31.273438 49.613281 31.527344 C 49.699219 31.785156 49.753906 32.046875 49.773438 32.316406 C 49.855469 33.277344 49.574219 34.117188 48.929688 34.835938 C 48.734375 34.988281 48.605469 35.1875 48.550781 35.425781 C 48.492188 35.667969 48.515625 35.898438 48.617188 36.125 C 48.738281 36.34375 48.914062 36.507812 49.140625 36.617188 C 49.367188 36.726562 49.605469 36.757812 49.851562 36.714844 C 51.707031 36.699219 53.5625 36.703125 55.445312 36.703125 L 57.226562 36.703125 L 57.226562 36.75 C 57.234375 36.894531 57.246094 37.035156 57.246094 37.171875 C 57.246094 43.75 57.246094 50.324219 57.246094 56.902344 C 57.25 58.089844 56.929688 58.417969 55.757812 58.417969 Z M 57.25 34.621094 L 51.496094 34.621094 C 52.375 31.660156 51.5625 29.382812 49.082031 27.851562 C 48.613281 27.566406 48.113281 27.359375 47.578125 27.230469 C 47.046875 27.101562 46.503906 27.058594 45.957031 27.097656 C 45.410156 27.140625 44.882812 27.261719 44.375 27.46875 C 43.867188 27.675781 43.402344 27.957031 42.984375 28.308594 C 41.011719 29.945312 40.433594 32.066406 41.261719 34.628906 L 35.507812 34.628906 L 35.507812 32.628906 C 35.507812 30.878906 35.507812 29.125 35.507812 27.371094 C 35.570312 27.121094 35.550781 26.878906 35.445312 26.644531 C 35.335938 26.410156 35.164062 26.234375 34.933594 26.121094 C 34.699219 26.007812 34.457031 25.980469 34.207031 26.039062 C 33.953125 26.097656 33.75 26.230469 33.589844 26.4375 C 33.257812 26.71875 32.882812 26.929688 32.464844 27.066406 C 32.046875 27.203125 31.621094 27.257812 31.183594 27.230469 C 30.746094 27.199219 30.328125 27.089844 29.933594 26.898438 C 29.539062 26.707031 29.195312 26.449219 28.898438 26.125 C 28.605469 25.800781 28.378906 25.433594 28.226562 25.023438 C 28.070312 24.613281 27.996094 24.1875 28.003906 23.75 C 28.011719 23.308594 28.101562 22.890625 28.269531 22.484375 C 28.4375 22.078125 28.675781 21.722656 28.984375 21.40625 C 29.289062 21.09375 29.640625 20.847656 30.042969 20.667969 C 30.445312 20.492188 30.863281 20.398438 31.304688 20.386719 C 31.742188 20.371094 32.167969 20.441406 32.578125 20.59375 C 32.988281 20.746094 33.355469 20.972656 33.679688 21.269531 C 33.84375 21.453125 34.050781 21.570312 34.296875 21.609375 C 34.542969 21.652344 34.773438 21.617188 34.992188 21.496094 C 35.195312 21.371094 35.34375 21.195312 35.445312 20.980469 C 35.542969 20.761719 35.574219 20.535156 35.539062 20.300781 C 35.519531 18.464844 35.519531 16.664062 35.523438 14.761719 L 35.523438 13 L 35.570312 13 C 35.714844 12.988281 35.851562 12.976562 35.992188 12.976562 C 42.589844 12.976562 49.191406 12.976562 55.792969 12.976562 C 56.9375 12.976562 57.253906 13.296875 57.253906 14.460938 C 57.253906 19.394531 57.253906 24.328125 57.253906 29.261719 Z M 14.183594 25.453125 L 15.378906 25.929688 C 16.472656 26.367188 17.546875 26.796875 18.617188 27.21875 C 19.394531 27.523438 19.890625 27.328125 20.179688 26.609375 C 20.984375 24.625 21.816406 22.570312 22.59375 20.496094 C 22.71875 20.074219 22.652344 19.683594 22.390625 19.328125 C 22.167969 19.078125 21.707031 19.082031 21.320312 19.089844 C 21.117188 19.09375 20.917969 19.117188 20.71875 19.15625 C 20.417969 19.199219 20.117188 19.1875 19.816406 19.117188 C 19.519531 19.050781 19.242188 18.925781 18.988281 18.753906 C 18.738281 18.578125 18.527344 18.363281 18.355469 18.109375 C 18.183594 17.855469 18.066406 17.578125 18 17.277344 C 17.933594 16.980469 17.925781 16.679688 17.972656 16.375 C 18.023438 16.070312 18.125 15.789062 18.28125 15.523438 C 18.4375 15.261719 18.636719 15.035156 18.878906 14.847656 C 19.121094 14.660156 19.390625 14.519531 19.683594 14.433594 C 19.953125 14.351562 20.230469 14.3125 20.511719 14.328125 C 20.796875 14.339844 21.070312 14.398438 21.332031 14.507812 C 21.59375 14.613281 21.828125 14.765625 22.039062 14.953125 C 22.246094 15.144531 22.417969 15.367188 22.550781 15.617188 C 22.703125 15.882812 23.066406 16.503906 23.691406 16.3125 C 24.101562 16.15625 24.398438 15.878906 24.578125 15.476562 C 25.25 13.886719 25.894531 12.257812 26.515625 10.679688 L 26.917969 9.660156 C 27.269531 8.78125 27.070312 8.320312 26.179688 7.964844 C 25.289062 7.609375 24.417969 7.265625 23.539062 6.914062 L 18.734375 5.011719 C 16.101562 3.964844 13.46875 2.921875 10.832031 1.878906 C 10.496094 1.714844 10.140625 1.625 9.769531 1.613281 C 9.394531 1.601562 9.035156 1.664062 8.691406 1.804688 C 8.34375 1.945312 8.042969 2.152344 7.78125 2.421875 C 7.523438 2.691406 7.332031 3 7.203125 3.351562 C 5.128906 8.535156 3.066406 13.722656 1.015625 18.914062 C 0.925781 19.058594 0.878906 19.21875 0.867188 19.386719 C 0.855469 19.558594 0.882812 19.722656 0.953125 19.878906 C 1.019531 20.035156 1.121094 20.167969 1.25 20.273438 C 1.382812 20.382812 1.53125 20.453125 1.699219 20.488281 C 2.578125 20.84375 3.457031 21.195312 4.335938 21.546875 L 5.839844 22.148438 C 5.941406 22.1875 6.042969 22.234375 6.148438 22.285156 C 5.84375 22.648438 5.605469 23.050781 5.429688 23.488281 C 5.257812 23.929688 5.15625 24.386719 5.128906 24.859375 C 5.101562 25.332031 5.148438 25.796875 5.269531 26.253906 C 5.394531 26.710938 5.582031 27.136719 5.84375 27.53125 C 6.214844 28.191406 6.726562 28.710938 7.378906 29.09375 C 8.03125 29.472656 8.738281 29.664062 9.496094 29.660156 C 9.726562 29.660156 9.960938 29.644531 10.191406 29.613281 C 12.453125 29.285156 13.796875 27.886719 14.183594 25.453125 Z M 7.320312 25.933594 C 7.234375 25.679688 7.191406 25.421875 7.191406 25.152344 C 7.191406 24.882812 7.230469 24.621094 7.316406 24.367188 C 7.402344 24.113281 7.527344 23.878906 7.6875 23.667969 C 7.851562 23.453125 8.042969 23.273438 8.265625 23.121094 C 8.332031 23.074219 8.40625 23.03125 8.476562 22.988281 C 8.84375 22.769531 9.300781 22.492188 9.214844 21.84375 C 9.128906 21.191406 8.609375 21.007812 8.191406 20.855469 C 8.128906 20.832031 8.066406 20.808594 8.003906 20.78125 L 3.238281 18.894531 L 3.265625 18.820312 C 3.328125 18.65625 3.382812 18.5 3.445312 18.34375 L 3.765625 17.53125 C 5.511719 13.136719 7.261719 8.742188 9.015625 4.347656 C 9.285156 3.671875 9.519531 3.5625 10.167969 3.820312 C 14.28125 5.449219 18.394531 7.082031 22.507812 8.714844 L 24.5625 9.53125 C 24.613281 9.554688 24.667969 9.578125 24.734375 9.613281 L 23.277344 13.285156 C 21.308594 11.910156 19.402344 11.894531 17.613281 13.242188 C 17.273438 13.488281 16.972656 13.777344 16.714844 14.109375 C 16.460938 14.441406 16.261719 14.804688 16.113281 15.199219 C 15.96875 15.59375 15.882812 16 15.859375 16.417969 C 15.832031 16.839844 15.871094 17.253906 15.972656 17.660156 C 16.410156 19.746094 17.792969 20.976562 20.078125 21.316406 L 18.617188 25.003906 L 13.84375 23.113281 C 13.804688 23.097656 13.769531 23.078125 13.734375 23.058594 C 13.625 22.992188 13.507812 22.957031 13.378906 22.945312 C 13.304688 22.945312 13.21875 22.945312 13.136719 22.945312 C 12.8125 22.894531 12.507812 22.953125 12.222656 23.121094 C 11.96875 23.332031 11.964844 23.796875 11.960938 24.171875 L 11.960938 24.238281 C 11.960938 24.449219 11.976562 24.65625 12.007812 24.863281 C 12.054688 25.117188 12.0625 25.375 12.039062 25.632812 C 11.992188 25.894531 11.90625 26.144531 11.777344 26.378906 C 11.644531 26.613281 11.480469 26.820312 11.28125 26.996094 C 11.082031 27.175781 10.859375 27.316406 10.613281 27.421875 C 10.367188 27.523438 10.109375 27.585938 9.84375 27.601562 C 9.570312 27.621094 9.300781 27.597656 9.035156 27.53125 C 8.769531 27.464844 8.523438 27.355469 8.292969 27.203125 C 8.066406 27.050781 7.867188 26.867188 7.703125 26.652344 C 7.535156 26.433594 7.40625 26.195312 7.320312 25.933594 Z M 7.320312 25.933594 " fill-opacity="1" fill-rule="nonzero"/></g></g></g></g><g fill="#ffffff" fill-opacity="1"><g transform="translate(141.717814, 180.616438)"><g><path d="M 4.464844 0 L 4.464844 -8.398438 L 7.839844 -3.582031 L 8.625 -3.582031 L 12.039062 -8.371094 L 12.039062 0 L 15.132812 0 L 15.132812 -13.3125 L 12.433594 -13.3125 L 8.230469 -7.597656 L 8.230469 -7.585938 L 4.089844 -13.3125 L 1.359375 -13.3125 L 1.359375 0 Z M 4.464844 0 "/></g></g></g><g fill="#ffffff" fill-opacity="1"><g transform="translate(158.646205, 180.616438)"><g><path d="M 8.3125 0 L 8.300781 -5.050781 L 13.441406 -13.3125 L 9.816406 -13.3125 L 6.773438 -7.78125 L 3.691406 -13.3125 L 0.0976562 -13.3125 L 5.207031 -5.03125 L 5.207031 0 Z M 8.3125 0 "/></g></g></g><g fill="#ffffff" fill-opacity="1"><g transform="translate(172.619618, 180.616438)"><g/></g></g><g fill="#ffffff" fill-opacity="1"><g transform="translate(177.874864, 180.616438)"><g><path d="M 2.742188 0 C 5.570312 0 7.703125 -1.59375 7.703125 -4.523438 L 7.703125 -13.3125 L 4.621094 -13.3125 L 4.621094 -4.707031 C 4.621094 -3.484375 3.886719 -2.761719 2.761719 -2.761719 L 0.410156 -2.761719 L 0.410156 0 Z M 2.742188 0 "/></g></g></g><g fill="#ffffff" fill-opacity="1"><g transform="translate(187.161407, 180.616438)"><g><path d="M 6.195312 0.332031 C 9.496094 0.332031 11.757812 -1.117188 11.757812 -3.777344 C 11.757812 -6.371094 9.691406 -7.5 7.019531 -8.035156 C 4.921875 -8.429688 4.042969 -8.847656 4.042969 -9.699219 C 4.042969 -10.308594 4.386719 -10.945312 6.039062 -10.945312 C 7.664062 -10.945312 8.191406 -10.199219 8.191406 -9.457031 L 11.296875 -9.457031 C 11.296875 -12 9.5625 -13.644531 6.078125 -13.644531 C 2.632812 -13.644531 0.941406 -12.039062 0.941406 -9.71875 C 0.941406 -6.902344 3.699219 -6.019531 5.941406 -5.480469 C 7.664062 -5.089844 8.613281 -4.707031 8.613281 -3.789062 C 8.613281 -2.78125 7.917969 -2.269531 6.1875 -2.269531 C 4.601562 -2.269531 3.710938 -3.015625 3.710938 -4.121094 L 0.605469 -4.121094 C 0.605469 -1.96875 2.113281 0.332031 6.195312 0.332031 Z M 6.195312 0.332031 "/></g></g></g><g fill="#ffffff" fill-opacity="1"><g transform="translate(199.901948, 180.616438)"><g/></g></g><g fill="#ffffff" fill-opacity="1"><g transform="translate(205.157194, 180.616438)"><g><path d="M 4.464844 0 L 4.464844 -8.398438 L 7.839844 -3.582031 L 8.625 -3.582031 L 12.039062 -8.371094 L 12.039062 0 L 15.132812 0 L 15.132812 -13.3125 L 12.433594 -13.3125 L 8.230469 -7.597656 L 8.230469 -7.585938 L 4.089844 -13.3125 L 1.359375 -13.3125 L 1.359375 0 Z M 4.464844 0 "/></g></g></g><g fill="#ffffff" fill-opacity="1"><g transform="translate(222.085586, 180.616438)"><g><path d="M 13.878906 0 L 8.417969 -13.324219 L 5.511719 -13.324219 L 0.0507812 0 L 3.328125 0 L 4.191406 -2.164062 L 9.738281 -2.164062 L 10.601562 0 Z M 6.863281 -8.898438 L 6.949219 -9.308594 L 6.980469 -9.308594 L 7.066406 -8.898438 L 8.722656 -4.738281 L 5.207031 -4.738281 Z M 6.863281 -8.898438 "/></g></g></g><g fill="#ffffff" fill-opacity="1"><g transform="translate(236.450387, 180.616438)"><g><path d="M 6.195312 0.332031 C 9.496094 0.332031 11.757812 -1.117188 11.757812 -3.777344 C 11.757812 -6.371094 9.691406 -7.5 7.019531 -8.035156 C 4.921875 -8.429688 4.042969 -8.847656 4.042969 -9.699219 C 4.042969 -10.308594 4.386719 -10.945312 6.039062 -10.945312 C 7.664062 -10.945312 8.191406 -10.199219 8.191406 -9.457031 L 11.296875 -9.457031 C 11.296875 -12 9.5625 -13.644531 6.078125 -13.644531 C 2.632812 -13.644531 0.941406 -12.039062 0.941406 -9.71875 C 0.941406 -6.902344 3.699219 -6.019531 5.941406 -5.480469 C 7.664062 -5.089844 8.613281 -4.707031 8.613281 -3.789062 C 8.613281 -2.78125 7.917969 -2.269531 6.1875 -2.269531 C 4.601562 -2.269531 3.710938 -3.015625 3.710938 -4.121094 L 0.605469 -4.121094 C 0.605469 -1.96875 2.113281 0.332031 6.195312 0.332031 Z M 6.195312 0.332031 "/></g></g></g><g fill="#ffffff" fill-opacity="1"><g transform="translate(249.190921, 180.616438)"><g><path d="M 7.175781 0 L 7.175781 -10.550781 L 10.894531 -10.550781 L 10.894531 -13.3125 L 0.363281 -13.3125 L 0.363281 -10.550781 L 4.089844 -10.550781 L 4.089844 0 Z M 7.175781 0 "/></g></g></g><g fill="#ffffff" fill-opacity="1"><g transform="translate(260.884494, 180.616438)"><g><path d="M 10.835938 0 L 10.835938 -2.761719 L 4.464844 -2.761719 L 4.464844 -5.460938 L 9.855469 -5.460938 L 9.855469 -8.046875 L 4.464844 -8.046875 L 4.464844 -10.5625 L 10.75 -10.5625 L 10.75 -13.3125 L 1.359375 -13.3125 L 1.359375 0 Z M 10.835938 0 "/></g></g></g><g fill="#ffffff" fill-opacity="1"><g transform="translate(272.734621, 180.616438)"><g><path d="M 4.464844 0 L 4.464844 -4.453125 L 6.441406 -4.453125 L 8.769531 0 L 12.324219 0 L 9.484375 -4.941406 C 11.023438 -5.597656 12.011719 -7.019531 12.011719 -8.828125 C 12.011719 -11.492188 10.015625 -13.3125 7.203125 -13.3125 L 1.359375 -13.3125 L 1.359375 0 Z M 4.464844 -10.550781 L 7.078125 -10.550781 C 8.09375 -10.550781 8.90625 -9.757812 8.90625 -8.828125 C 8.90625 -7.792969 8.105469 -7.046875 7.078125 -7.046875 L 4.464844 -7.046875 Z M 4.464844 -10.550781 "/></g></g></g></svg>